# xmcd
#
# Track frame offsets: 
#        150
#        14650
#        27302
#        38700
#        53995
#        63514
#        74050
#        87377
#        98867
#        111020
#        121170
#        129542
#        139445
#        153487
#        172347
#        187540
#        204047
#        217017
#        229660
#        246577
#        263407
#        278112
#        295442
#        310550
#
# Disc length: 4385 seconds
#
# Revision: 4
# Processed by: cddbd v1.5.2PL0 Copyright (c) Steve Scherf et al.
# Submitted via: ExactAudioCopy v0.99pb4
#
DISCID=67111f18
DTITLE=Frank Sinatra - The Complete Reprise Studio Recordings  CD2
DYEAR=1995
DGENRE=Jazz
TTITLE0=There Are Such Things
TTITLE1=It's Always You
TTITLE2=It Started All Over Again
TTITLE3=East Of The Sun (And West Of The Moon)
TTITLE4=The Curse Of An Aching Heart
TTITLE5=Love Walked In
TTITLE6=Please Don't Talk About Me When I'm Gone
TTITLE7=Have You Met Miss Jones?
TTITLE8=Don't Be That Way
TTITLE9=I Never Knew
TTITLE10=Falling In Love With Love
TTITLE11=It's A Wonderful World
TTITLE12=Don't Cry Joe
TTITLE13=You're Nobody 'Til Somebody Loves You
TTITLE14=Moonlight On The Ganges
TTITLE15=Granada
TTITLE16=As You Desire Me
TTITLE17=Stardust
TTITLE18=Yesterdays
TTITLE19=I Hadn't Anyone Till You
TTITLE20=It Might As Well Be Spring
TTITLE21=Prisoner Of Love
TTITLE22=That's All
TTITLE23=Don't Take Your Love From Me
EXTD=YEAR: 1995
EXTT0=
EXTT1=
EXTT2=
EXTT3=
EXTT4=
EXTT5=
EXTT6=
EXTT7=
EXTT8=
EXTT9=
EXTT10=
EXTT11=
EXTT12=
EXTT13=
EXTT14=
EXTT15=
EXTT16=
EXTT17=
EXTT18=
EXTT19=
EXTT20=
EXTT21=
EXTT22=
EXTT23=
PLAYORDER=
